<mxfile host="app.diagrams.net" agent="Mozilla/5.0 (Windows NT 10.0; Win64; x64) AppleWebKit/537.36 (KHTML, like Gecko) Chrome/138.0.0.0 Safari/537.36" version="28.1.0">
  <diagram name="Current Architecture" id="fYlb3AJEogjse8cZx6xK">
    <mxGraphModel dx="1156" dy="770" grid="1" gridSize="10" guides="1" tooltips="1" connect="1" arrows="1" fold="1" page="1" pageScale="1" pageWidth="1169" pageHeight="827" math="0" shadow="0">
      <root>
        <mxCell id="_chbsp2KwQ7MfZHehTwQ-0" />
        <mxCell id="_chbsp2KwQ7MfZHehTwQ-1" parent="_chbsp2KwQ7MfZHehTwQ-0" />
        <mxCell id="LgxVgvg5QJBHyh6LMD2e-0" value="AWS Cloud" style="points=[[0,0],[0.25,0],[0.5,0],[0.75,0],[1,0],[1,0.25],[1,0.5],[1,0.75],[1,1],[0.75,1],[0.5,1],[0.25,1],[0,1],[0,0.75],[0,0.5],[0,0.25]];outlineConnect=0;gradientColor=none;html=1;whiteSpace=wrap;fontSize=12;fontStyle=0;container=1;pointerEvents=0;collapsible=0;recursiveResize=0;shape=mxgraph.aws4.group;grIcon=mxgraph.aws4.group_aws_cloud_alt;strokeColor=#232F3E;fillColor=none;verticalAlign=top;align=left;spacingLeft=30;fontColor=#232F3E;dashed=0;" vertex="1" parent="_chbsp2KwQ7MfZHehTwQ-1">
          <mxGeometry x="20" y="20" width="1030" height="660" as="geometry" />
        </mxCell>
        <mxCell id="LgxVgvg5QJBHyh6LMD2e-1" value="" style="sketch=0;outlineConnect=0;fontColor=#232F3E;gradientColor=none;fillColor=#C925D1;strokeColor=none;dashed=0;verticalLabelPosition=bottom;verticalAlign=top;align=center;html=1;fontSize=12;fontStyle=0;aspect=fixed;pointerEvents=1;shape=mxgraph.aws4.rds_postgresql_instance;" vertex="1" parent="LgxVgvg5QJBHyh6LMD2e-0">
          <mxGeometry x="100" y="100" width="150" height="150" as="geometry" />
        </mxCell>
        <mxCell id="LgxVgvg5QJBHyh6LMD2e-2" value="Security group" style="fillColor=none;strokeColor=#DD3522;verticalAlign=top;fontStyle=0;fontColor=#DD3522;whiteSpace=wrap;html=1;" vertex="1" parent="LgxVgvg5QJBHyh6LMD2e-0">
          <mxGeometry x="80" y="80" width="200" height="190" as="geometry" />
        </mxCell>
        <mxCell id="LgxVgvg5QJBHyh6LMD2e-8" value="" style="edgeStyle=orthogonalEdgeStyle;rounded=0;orthogonalLoop=1;jettySize=auto;html=1;" edge="1" parent="LgxVgvg5QJBHyh6LMD2e-0" source="LgxVgvg5QJBHyh6LMD2e-4" target="LgxVgvg5QJBHyh6LMD2e-5">
          <mxGeometry relative="1" as="geometry" />
        </mxCell>
        <mxCell id="LgxVgvg5QJBHyh6LMD2e-4" value="" style="sketch=0;points=[[0,0,0],[0.25,0,0],[0.5,0,0],[0.75,0,0],[1,0,0],[0,1,0],[0.25,1,0],[0.5,1,0],[0.75,1,0],[1,1,0],[0,0.25,0],[0,0.5,0],[0,0.75,0],[1,0.25,0],[1,0.5,0],[1,0.75,0]];outlineConnect=0;fontColor=#232F3E;fillColor=#8C4FFF;strokeColor=#ffffff;dashed=0;verticalLabelPosition=bottom;verticalAlign=top;align=center;html=1;fontSize=12;fontStyle=0;aspect=fixed;shape=mxgraph.aws4.resourceIcon;resIcon=mxgraph.aws4.serverless;" vertex="1" parent="LgxVgvg5QJBHyh6LMD2e-0">
          <mxGeometry x="135" y="360" width="90" height="90" as="geometry" />
        </mxCell>
        <mxCell id="LgxVgvg5QJBHyh6LMD2e-5" value="" style="sketch=0;points=[[0,0,0],[0.25,0,0],[0.5,0,0],[0.75,0,0],[1,0,0],[0,1,0],[0.25,1,0],[0.5,1,0],[0.75,1,0],[1,1,0],[0,0.25,0],[0,0.5,0],[0,0.75,0],[1,0.25,0],[1,0.5,0],[1,0.75,0]];outlineConnect=0;fontColor=#232F3E;fillColor=#8C4FFF;strokeColor=#ffffff;dashed=0;verticalLabelPosition=bottom;verticalAlign=top;align=center;html=1;fontSize=12;fontStyle=0;aspect=fixed;shape=mxgraph.aws4.resourceIcon;resIcon=mxgraph.aws4.serverless;" vertex="1" parent="LgxVgvg5QJBHyh6LMD2e-0">
          <mxGeometry x="280" y="360" width="90" height="90" as="geometry" />
        </mxCell>
        <mxCell id="LgxVgvg5QJBHyh6LMD2e-7" style="rounded=0;orthogonalLoop=1;jettySize=auto;html=1;exitX=0.5;exitY=1;exitDx=0;exitDy=0;entryX=0.5;entryY=0;entryDx=0;entryDy=0;entryPerimeter=0;endArrow=none;endFill=0;startArrow=classic;startFill=1;" edge="1" parent="LgxVgvg5QJBHyh6LMD2e-0" source="LgxVgvg5QJBHyh6LMD2e-2" target="LgxVgvg5QJBHyh6LMD2e-4">
          <mxGeometry relative="1" as="geometry" />
        </mxCell>
        <mxCell id="LgxVgvg5QJBHyh6LMD2e-3" value="" style="image;aspect=fixed;perimeter=ellipsePerimeter;html=1;align=center;shadow=0;dashed=0;spacingTop=3;image=img/lib/active_directory/internet_cloud.svg;" vertex="1" parent="_chbsp2KwQ7MfZHehTwQ-1">
          <mxGeometry x="140" y="720" width="50" height="31.5" as="geometry" />
        </mxCell>
      </root>
    </mxGraphModel>
  </diagram>
</mxfile>
